<svg xmlns="http://www.w3.org/2000/svg" viewBox="0 0 105.3 26"><g fill="#1d1d1b"><circle cx="19.5" cy="6.5" r="6.5"/><circle cx="9.3" cy="21.4" r="4.6"/><circle cx="2.8" cy="11.1" r="2.8"/></g><g fill="#1d1d1b"><path d="M42,5l4.5,13.1c0,0,0,0.1,0.1,0.1s0.1-0.1,0.1-0.1L51.4,5h2.3l-5.8,16h-2.4L39.7,5L42,5L42,5z"/><path d="M60.3,9v1.8c0,0.1,0,0.1-0.1,0.1c0,0-0.1-0.1-0.1-0.1c-0.1-0.2-0.3-0.4-0.5-0.7c-0.2-0.3-0.6-0.6-1.1-0.9 c-0.5-0.3-1.1-0.4-1.8-0.4c-1,0-1.9,0.2-2.6,0.7c-0.8,0.5-1.4,1.2-1.8,2.1c-0.4,0.9-0.7,2-0.7,3.3s0.2,2.4,0.7,3.3 c0.4,0.9,1,1.6,1.8,2.1c0.8,0.5,1.6,0.8,2.6,0.8c0.8,0,1.4-0.1,1.8-0.4s0.8-0.5,1.1-0.9c0.2-0.2,0.4-0.5,0.5-0.7 c0,0,0-0.1,0.1-0.1c0,0,0.1-0.1,0.1-0.1c0.1,0,0.1,0.1,0.1,0.1V21h2V9C62.4,9,60.3,9,60.3,9z M60,17.3c-0.2,0.7-0.6,1.2-1.1,1.6 c-0.5,0.4-1.1,0.5-1.8,0.5c-0.7,0-1.3-0.2-1.8-0.6s-0.9-0.9-1.1-1.6c-0.2-0.7-0.4-1.4-0.4-2.2s0.1-1.6,0.4-2.2 c0.2-0.6,0.6-1.2,1.1-1.6c0.5-0.4,1.1-0.6,1.8-0.6s1.3,0.2,1.8,0.5c0.5,0.4,0.9,0.9,1.1,1.5s0.4,1.4,0.4,2.3S60.2,16.7,60,17.3z" /><path d="M69.9,8.9v2.1c-0.1,0-0.2-0.1-0.5-0.1c-0.2,0-0.5-0.1-0.7-0.1c-0.6,0-1.1,0.1-1.5,0.4c-0.4,0.2-0.8,0.6-1.1,1 c-0.3,0.4-0.4,0.9-0.4,1.4V21h-2.1V9h2v1.8c0,0,0,0.1,0.1,0.1c0.1,0,0.1-0.1,0.1-0.1c0.2-0.6,0.6-1.1,1.1-1.4 c0.6-0.4,1.2-0.6,1.9-0.6c0.1,0,0.3,0,0.5,0C69.6,8.8,69.8,8.9,69.9,8.9L69.9,8.9z"/><path d="M72.9,13.8V21h-2.1V9h2v1.8c0,0,0,0.1,0.1,0.1c0.1,0,0.1,0,0.1-0.1c0.3-0.6,0.7-1.1,1.3-1.4s1.3-0.6,2.2-0.6 c0.8,0,1.5,0.2,2.1,0.5s1.1,0.8,1.4,1.5c0.3,0.7,0.5,1.5,0.5,2.5V21h-2.1v-7.4c0-0.9-0.2-1.6-0.7-2.1s-1.1-0.8-1.9-0.8 c-0.6,0-1.1,0.1-1.5,0.4s-0.8,0.6-1,1.1C73,12.6,72.9,13.2,72.9,13.8L72.9,13.8z"/><path d="M94.3,11.8l-1.9,0.4c-0.1-0.3-0.2-0.5-0.4-0.8c-0.2-0.2-0.5-0.5-0.8-0.6s-0.8-0.2-1.3-0.2c-0.7,0-1.3,0.2-1.7,0.5 c-0.5,0.3-0.7,0.7-0.7,1.2c0,0.4,0.2,0.8,0.5,1s0.8,0.5,1.5,0.6l1.8,0.4c1.1,0.2,1.9,0.6,2.4,1.2s0.8,1.2,0.8,2.1 c0,0.7-0.2,1.3-0.6,1.9s-1,1-1.7,1.3s-1.6,0.5-2.5,0.5c-1.3,0-2.3-0.3-3.2-0.8c-0.8-0.5-1.3-1.4-1.6-2.4l2-0.4 c0.2,0.6,0.5,1.1,0.9,1.4c0.4,0.3,1,0.5,1.8,0.5c0.8,0,1.5-0.2,1.9-0.5s0.7-0.8,0.7-1.2c0-0.4-0.2-0.7-0.4-1 c-0.3-0.3-0.7-0.5-1.3-0.6l-2-0.5c-1.1-0.3-1.9-0.7-2.4-1.2c-0.5-0.6-0.8-1.2-0.8-2.1c0-0.7,0.2-1.3,0.6-1.8s0.9-0.9,1.6-1.2 s1.5-0.4,2.3-0.4c1.2,0,2.2,0.3,2.9,0.8C93.5,10.2,94,10.9,94.3,11.8L94.3,11.8z"/><path d="M97.5,13.8V21h-2.1V5h2.1v5.8c0,0,0,0.1,0.1,0.1s0.1-0.1,0.1-0.1c0.3-0.6,0.7-1.1,1.2-1.4s1.3-0.6,2.3-0.6 c0.8,0,1.5,0.2,2.2,0.5c0.6,0.3,1.1,0.8,1.4,1.5c0.3,0.7,0.5,1.5,0.5,2.5V21h-2.1v-7.4c0-0.9-0.2-1.6-0.7-2.1 c-0.5-0.5-1.1-0.8-2-0.8c-0.6,0-1.1,0.1-1.6,0.4s-0.8,0.6-1.1,1.1C97.6,12.6,97.5,13.2,97.5,13.8L97.5,13.8z"/><g><path d="M81.8,21V9h2.1v12H81.8z"/><path d="M82.8,5L82.8,5c0.8,0,1.3,0.6,1.3,1.3v0.1c0,0.7-0.6,1.3-1.3,1.3h-0.1c-0.7,0-1.3-0.6-1.3-1.3V6.3 C81.6,5.6,82.2,5,82.8,5z"/></g></g></svg>
